<svg width="300" height="300" viewBox="0 0 300 300" fill="none" xmlns="http://www.w3.org/2000/svg">
<rect x="0.5" y="0.5" width="299" height="299" fill="#FBF9C2" stroke="white"/>
<path d="M130.3 214C127.54 214 124.24 212.98 120.4 210.94C116.68 208.9 113.38 206.5 110.5 203.74C107.74 200.98 106.36 198.7 106.36 196.9C106.36 193.78 109.3 177.88 115.18 149.2C115.9 145.84 117.04 140.14 118.6 132.1C120.28 123.94 121.42 118.06 122.02 114.46L115.36 115.54C111.64 112.06 109.78 107.68 109.78 102.4C109.78 98.68 110.8 94.84 112.84 90.88C122.56 88.36 132.4 87.1 142.36 87.1C152.92 87.1 162.7 88.48 171.7 91.24C180.82 94 188.2 98.26 193.84 104.02C199.48 109.66 202.3 116.74 202.3 125.26C202.3 132.82 199.78 140.02 194.74 146.86C189.82 153.58 182.62 159.16 173.14 163.6C163.66 168.04 152.5 170.74 139.66 171.7C138.82 177.46 138.16 182.68 137.68 187.36C136.6 196.48 135.58 203.2 134.62 207.52C133.66 211.84 132.22 214 130.3 214ZM142.36 149.38C152.8 147.34 160.84 144.22 166.48 140.02C172.24 135.7 175.12 130.9 175.12 125.62C175.12 122.02 173.32 119.02 169.72 116.62C166.24 114.1 161.5 112.84 155.5 112.84C153.34 112.84 151 113.02 148.48 113.38L145.6 130.3C143.92 139.78 142.84 146.14 142.36 149.38Z" fill="#B2D9FB"/>
</svg>
