<svg width="304" height="91" viewBox="0 0 304 91" fill="none" xmlns="http://www.w3.org/2000/svg">
<path d="M36.965 68C35.9837 68 34.8103 67.6373 33.445 66.912C32.1223 66.1867 30.949 65.3333 29.925 64.352C28.9437 63.3707 28.453 62.56 28.453 61.92C28.453 60.8107 29.4983 55.1573 31.589 44.96C31.845 43.7653 32.2503 41.7387 32.805 38.88C33.4023 35.9787 33.8077 33.888 34.021 32.608L31.653 32.992C30.3303 31.7547 29.669 30.1973 29.669 28.32C29.669 26.9973 30.0317 25.632 30.757 24.224C34.213 23.328 37.7117 22.88 41.253 22.88C45.0077 22.88 48.485 23.3707 51.685 24.352C54.9277 25.3333 57.5517 26.848 59.557 28.896C61.5623 30.9013 62.565 33.4187 62.565 36.448C62.565 39.136 61.669 41.696 59.877 44.128C58.1277 46.5173 55.5677 48.5013 52.197 50.08C48.8263 51.6587 44.8583 52.6187 40.293 52.96C39.9943 55.008 39.7597 56.864 39.589 58.528C39.205 61.7707 38.8423 64.16 38.501 65.696C38.1597 67.232 37.6477 68 36.965 68ZM41.253 45.024C44.965 44.2987 47.8237 43.1893 49.829 41.696C51.877 40.16 52.901 38.4533 52.901 36.576C52.901 35.296 52.261 34.2293 50.981 33.376C49.7437 32.48 48.0583 32.032 45.925 32.032C45.157 32.032 44.325 32.096 43.429 32.224L42.405 38.24C41.8077 41.6107 41.4237 43.872 41.253 45.024ZM88.295 56.032C89.4897 56.5867 90.407 57.376 91.047 58.4C91.7297 59.424 92.071 60.5333 92.071 61.728C92.071 63.4773 91.4097 65.0133 90.087 66.336C87.4417 66.8907 84.6043 67.3173 81.575 67.616C78.5457 67.9147 75.815 68.064 73.383 68.064C72.359 68.064 71.6123 68.0427 71.143 68C70.375 67.9573 69.3723 67.552 68.135 66.784C66.9403 66.016 65.8737 65.1413 64.935 64.16C63.9963 63.136 63.527 62.2613 63.527 61.536C63.527 60.768 63.9963 58.3573 64.935 54.304C65.831 50.5067 66.663 46.5173 67.431 42.336L67.943 39.52C68.7963 34.6987 69.5857 30.7733 70.311 27.744C71.079 24.7147 71.847 23.2 72.615 23.2C73.4257 23.2 74.5137 23.5627 75.879 24.288C77.2443 25.0133 78.439 25.8667 79.463 26.848C80.5297 27.8293 81.063 28.6827 81.063 29.408C81.063 29.8347 80.8283 30.88 80.359 32.544C79.9323 34.1653 79.6763 35.168 79.591 35.552C78.183 40.544 77.0737 44.896 76.263 48.608C75.7083 51.2533 74.8763 54.7947 73.767 59.232C78.759 58.72 83.6017 57.6533 88.295 56.032ZM127.171 52.064C127.214 52.7467 127.363 54.4747 127.619 57.248C127.918 59.9787 128.067 62.2613 128.067 64.096C128.067 66.4853 127.79 67.7653 127.235 67.936C127.064 67.9787 126.787 68 126.403 68C125.464 68 124.291 67.7867 122.883 67.36C121.518 66.8907 120.28 66.3147 119.171 65.632C118.104 64.9493 117.486 64.288 117.315 63.648C117.144 63.008 117.059 60.32 117.059 55.584C112.451 56.1387 109.422 56.48 107.971 56.608C106.819 59.9787 105.496 63.6693 104.003 67.68C102.851 67.936 101.784 68.064 100.803 68.064C99.0963 68.064 97.6457 67.6587 96.451 66.848C95.299 65.9947 94.531 64.7147 94.147 63.008L95.427 60.128C100.12 49.6747 104.174 40.9067 107.587 33.824C111.043 26.7413 113.283 23.2 114.307 23.2C115.118 23.2 116.291 23.4987 117.827 24.096C119.406 24.6933 120.814 25.4187 122.051 26.272C123.331 27.1253 124.056 27.8933 124.227 28.576C124.526 29.7707 124.931 32.2667 125.443 36.064C125.955 39.8613 126.36 43.5307 126.659 47.072L127.171 52.064ZM116.867 33.184C114.99 37.6213 113.134 42.3787 111.299 47.456C113.262 47.328 115.203 47.136 117.123 46.88C117.123 40.992 117.038 36.4267 116.867 33.184ZM162.606 23.2C163.416 23.2 164.504 23.5627 165.87 24.288C167.278 25.0133 168.494 25.8667 169.518 26.848C170.584 27.8293 171.118 28.6827 171.118 29.408C171.118 29.792 170.712 31.4987 169.902 34.528C168.408 39.904 167.299 44.5973 166.574 48.608C166.147 51.1253 165.699 54.432 165.229 58.528C164.803 62.0267 164.419 64.48 164.078 65.888C163.779 67.296 163.288 68 162.606 68C161.368 68 159.918 67.488 158.254 66.464C156.632 65.3973 155.224 64.096 154.03 62.56C153.39 61.7067 152.494 60.0427 151.342 57.568C150.19 55.0933 149.059 52.32 147.95 49.248C146.883 46.1333 146.072 43.232 145.518 40.544L145.07 48.608C144.643 51.1253 144.195 54.432 143.726 58.528C143.299 62.0267 142.915 64.48 142.574 65.888C142.275 67.296 141.784 68 141.102 68C140.12 68 138.947 67.6587 137.582 66.976C136.259 66.2507 135.086 65.3973 134.062 64.416C133.08 63.4347 132.59 62.624 132.59 61.984C132.547 61.3013 132.739 59.872 133.166 57.696C133.635 55.4773 133.934 54.048 134.062 53.408C134.232 52.5547 134.552 50.9973 135.022 48.736C135.491 46.432 135.875 44.2987 136.174 42.336L136.686 39.328C137.496 34.5493 138.243 30.6667 138.926 27.68C139.651 24.6933 140.376 23.2 141.102 23.2C141.827 23.2 142.808 23.52 144.046 24.16C145.326 24.7573 146.478 25.504 147.502 26.4C148.568 27.296 149.251 28.1493 149.55 28.96C151.555 34.336 154.008 41.5893 156.91 50.72L157.678 42.336L158.19 39.328C159 34.5493 159.747 30.6667 160.43 27.68C161.155 24.6933 161.88 23.2 162.606 23.2ZM202.359 52.064C202.401 52.7467 202.551 54.4747 202.807 57.248C203.105 59.9787 203.255 62.2613 203.255 64.096C203.255 66.4853 202.977 67.7653 202.423 67.936C202.252 67.9787 201.975 68 201.591 68C200.652 68 199.479 67.7867 198.071 67.36C196.705 66.8907 195.468 66.3147 194.359 65.632C193.292 64.9493 192.673 64.288 192.503 63.648C192.332 63.008 192.247 60.32 192.247 55.584C187.639 56.1387 184.609 56.48 183.159 56.608C182.007 59.9787 180.684 63.6693 179.191 67.68C178.039 67.936 176.972 68.064 175.991 68.064C174.284 68.064 172.833 67.6587 171.639 66.848C170.486 65.9947 169.718 64.7147 169.334 63.008L170.614 60.128C175.308 49.6747 179.361 40.9067 182.775 33.824C186.231 26.7413 188.471 23.2 189.495 23.2C190.305 23.2 191.479 23.4987 193.015 24.096C194.593 24.6933 196.001 25.4187 197.239 26.272C198.519 27.1253 199.244 27.8933 199.415 28.576C199.713 29.7707 200.119 32.2667 200.631 36.064C201.143 39.8613 201.548 43.5307 201.847 47.072L202.359 52.064ZM192.055 33.184C190.177 37.6213 188.321 42.3787 186.487 47.456C188.449 47.328 190.391 47.136 192.311 46.88C192.311 40.992 192.225 36.4267 192.055 33.184ZM234.175 68.384C231.146 66.6347 228.458 64.4587 226.111 61.856C223.764 59.2533 221.866 56.288 220.415 52.96L220.159 55.648C219.732 59.7867 219.306 62.88 218.879 64.928C218.495 66.976 217.94 68 217.215 68C216.234 68 215.06 67.6373 213.695 66.912C212.372 66.1867 211.199 65.3333 210.175 64.352C209.194 63.3707 208.703 62.56 208.703 61.92C208.703 60.8107 209.748 55.1573 211.839 44.96C212.095 43.7653 212.5 41.7387 213.055 38.88C213.652 35.9787 214.058 33.888 214.271 32.608L211.903 32.992C210.58 31.7547 209.919 30.1973 209.919 28.32C209.919 26.9973 210.282 25.632 211.007 24.224C214.463 23.328 217.962 22.88 221.503 22.88C225.258 22.88 228.735 23.3707 231.935 24.352C235.178 25.3333 237.802 26.848 239.807 28.896C241.812 30.9013 242.815 33.4187 242.815 36.448C242.815 39.9893 241.428 43.04 238.655 45.6C235.882 48.1173 231.807 49.8027 226.431 50.656C228.564 52.6613 230.698 54.2827 232.831 55.52C235.007 56.7147 237.738 57.8667 241.023 58.976C241.194 59.6587 241.279 60.4053 241.279 61.216C241.279 63.1787 240.682 64.8 239.487 66.08C238.292 67.36 236.522 68.128 234.175 68.384ZM221.631 44.448C225.002 44.1067 227.754 43.2107 229.887 41.76C232.063 40.3093 233.151 38.5813 233.151 36.576C233.151 35.296 232.511 34.2293 231.231 33.376C229.994 32.48 228.308 32.032 226.175 32.032C225.407 32.032 224.575 32.096 223.679 32.224C222.996 36.1493 222.676 38.0267 222.719 37.856C222.335 39.9467 221.972 42.144 221.631 44.448ZM277.26 35.872C276.833 36.4267 275.19 38.5387 272.332 42.208C269.473 45.8773 266.465 49.5467 263.308 53.216L262.604 59.04C262.262 62.3253 261.921 64.6507 261.58 66.016C261.281 67.3387 260.79 68 260.108 68C259.126 68 257.953 67.6587 256.588 66.976C255.265 66.2507 254.092 65.3973 253.068 64.416C252.086 63.4347 251.595 62.624 251.595 61.984C251.553 61.216 251.681 60.128 251.98 58.72C252.321 57.2693 252.897 54.88 253.708 51.552L254.156 49.824C253.857 49.1413 252.726 46.7947 250.764 42.784C249.142 39.584 247.926 37.0453 247.116 35.168C246.305 33.248 245.9 31.776 245.9 30.752C245.9 30.0267 246.369 29.1733 247.308 28.192C248.289 27.2107 249.441 26.3787 250.764 25.696C252.129 24.9707 253.345 24.608 254.412 24.608C255.222 24.608 255.862 25.3333 256.332 26.784C256.801 28.192 257.398 30.6667 258.124 34.208C258.806 37.92 259.489 41.0347 260.172 43.552C264.225 36.64 267.638 30.0907 270.412 23.904C271.82 23.52 273.078 23.328 274.188 23.328C276.406 23.328 278.113 23.9893 279.308 25.312C280.545 26.6347 281.206 28.4267 281.292 30.688L277.26 35.872Z" fill="#87C5FB"/>
</svg>
